# Exported from Wings 3D 1.5.3
mtllib Knight_LFO_C_Collider.mtl
o Knight_LFO_C_Collider
#32 vertices, 18 faces
v 0.46875000 0.24250000 -9.3240172e-2
v 0.46875000 0.24250000 9.3240172e-2
v 0.39738706 0.24250000 0.26552555
v 0.26552555 0.24250000 0.39738706
v 9.3240172e-2 0.24250000 0.46875000
v -9.3240172e-2 0.24250000 0.46875000
v -0.26552555 0.24250000 0.39738706
v -0.39738706 0.24250000 0.26552555
v -0.46875000 0.24250000 9.3240172e-2
v -0.46875000 0.24250000 -9.3240172e-2
v -0.39738706 0.24250000 -0.26552555
v -0.26552555 0.24250000 -0.39738706
v -9.3240172e-2 0.24250000 -0.46875000
v 9.3240172e-2 0.24250000 -0.46875000
v 0.26552555 0.24250000 -0.39738706
v 0.39738706 0.24250000 -0.26552555
v 0.46875000 -0.24250000 -9.3240172e-2
v 0.46875000 -0.24250000 9.3240172e-2
v 0.39738706 -0.24250000 0.26552555
v 0.26552555 -0.24250000 0.39738706
v 9.3240172e-2 -0.24250000 0.46875000
v -9.3240172e-2 -0.24250000 0.46875000
v -0.26552555 -0.24250000 0.39738706
v -0.39738706 -0.24250000 0.26552555
v -0.46875000 -0.24250000 9.3240172e-2
v -0.46875000 -0.24250000 -9.3240172e-2
v -0.39738706 -0.24250000 -0.26552555
v -0.26552555 -0.24250000 -0.39738706
v -9.3240172e-2 -0.24250000 -0.46875000
v 9.3240172e-2 -0.24250000 -0.46875000
v 0.26552555 -0.24250000 -0.39738706
v 0.39738706 -0.24250000 -0.26552555
vn 0.0000000e+0 1.00000000 4.9613049e-18
vn 0.92387953 0.0000000e+0 -0.38268343
vn 1.00000000 0.0000000e+0 0.0000000e+0
vn 0.0000000e+0 1.00000000 4.9613049e-18
vn 0.92387953 0.0000000e+0 0.38268343
vn 1.00000000 0.0000000e+0 0.0000000e+0
vn 0.0000000e+0 1.00000000 4.9613049e-18
vn 0.70710678 0.0000000e+0 0.70710678
vn 0.92387953 0.0000000e+0 0.38268343
vn 0.0000000e+0 1.00000000 4.9613049e-18
vn 0.38268343 0.0000000e+0 0.92387953
vn 0.70710678 0.0000000e+0 0.70710678
vn 0.0000000e+0 1.00000000 4.9613049e-18
vn -2.9767830e-16 0.0000000e+0 1.00000000
vn 0.38268343 0.0000000e+0 0.92387953
vn 0.0000000e+0 1.00000000 4.9613049e-18
vn -0.38268343 0.0000000e+0 0.92387953
vn -2.9767830e-16 0.0000000e+0 1.00000000
vn 0.0000000e+0 1.00000000 4.9613049e-18
vn -0.70710678 0.0000000e+0 0.70710678
vn -0.38268343 0.0000000e+0 0.92387953
vn 0.0000000e+0 1.00000000 4.9613049e-18
vn -0.92387953 0.0000000e+0 0.38268343
vn -0.70710678 0.0000000e+0 0.70710678
vn 0.0000000e+0 1.00000000 4.9613049e-18
vn -1.00000000 0.0000000e+0 0.0000000e+0
vn -0.92387953 0.0000000e+0 0.38268343
vn 0.0000000e+0 1.00000000 4.9613049e-18
vn -0.92387953 0.0000000e+0 -0.38268343
vn -1.00000000 0.0000000e+0 0.0000000e+0
vn 0.0000000e+0 1.00000000 4.9613049e-18
vn -0.70710678 0.0000000e+0 -0.70710678
vn -0.92387953 0.0000000e+0 -0.38268343
vn 0.0000000e+0 1.00000000 4.9613049e-18
vn -0.38268343 0.0000000e+0 -0.92387953
vn -0.70710678 0.0000000e+0 -0.70710678
vn 0.0000000e+0 1.00000000 4.9613049e-18
vn 2.9767830e-16 0.0000000e+0 -1.00000000
vn -0.38268343 0.0000000e+0 -0.92387953
vn 0.0000000e+0 1.00000000 4.9613049e-18
vn 0.38268343 0.0000000e+0 -0.92387953
vn 2.9767830e-16 0.0000000e+0 -1.00000000
vn 0.0000000e+0 1.00000000 4.9613049e-18
vn 0.70710678 0.0000000e+0 -0.70710678
vn 0.38268343 0.0000000e+0 -0.92387953
vn 0.0000000e+0 1.00000000 4.9613049e-18
vn 0.92387953 0.0000000e+0 -0.38268343
vn 0.70710678 0.0000000e+0 -0.70710678
vn 0.0000000e+0 -1.00000000 -4.9613049e-18
vn 0.92387953 0.0000000e+0 -0.38268343
vn 1.00000000 0.0000000e+0 0.0000000e+0
vn 0.0000000e+0 -1.00000000 -4.9613049e-18
vn 0.92387953 0.0000000e+0 0.38268343
vn 1.00000000 0.0000000e+0 0.0000000e+0
vn 0.0000000e+0 -1.00000000 -4.9613049e-18
vn 0.70710678 0.0000000e+0 0.70710678
vn 0.92387953 0.0000000e+0 0.38268343
vn 0.0000000e+0 -1.00000000 -4.9613049e-18
vn 0.38268343 0.0000000e+0 0.92387953
vn 0.70710678 0.0000000e+0 0.70710678
vn 0.0000000e+0 -1.00000000 -4.9613049e-18
vn -2.9767830e-16 0.0000000e+0 1.00000000
vn 0.38268343 0.0000000e+0 0.92387953
vn 0.0000000e+0 -1.00000000 -4.9613049e-18
vn -0.38268343 0.0000000e+0 0.92387953
vn -2.9767830e-16 0.0000000e+0 1.00000000
vn 0.0000000e+0 -1.00000000 -4.9613049e-18
vn -0.70710678 0.0000000e+0 0.70710678
vn -0.38268343 0.0000000e+0 0.92387953
vn 0.0000000e+0 -1.00000000 -4.9613049e-18
vn -0.92387953 0.0000000e+0 0.38268343
vn -0.70710678 0.0000000e+0 0.70710678
vn 0.0000000e+0 -1.00000000 -4.9613049e-18
vn -1.00000000 0.0000000e+0 0.0000000e+0
vn -0.92387953 0.0000000e+0 0.38268343
vn 0.0000000e+0 -1.00000000 -4.9613049e-18
vn -0.92387953 0.0000000e+0 -0.38268343
vn -1.00000000 0.0000000e+0 0.0000000e+0
vn 0.0000000e+0 -1.00000000 -4.9613049e-18
vn -0.70710678 0.0000000e+0 -0.70710678
vn -0.92387953 0.0000000e+0 -0.38268343
vn 0.0000000e+0 -1.00000000 -4.9613049e-18
vn -0.38268343 0.0000000e+0 -0.92387953
vn -0.70710678 0.0000000e+0 -0.70710678
vn 0.0000000e+0 -1.00000000 -4.9613049e-18
vn 2.9767830e-16 0.0000000e+0 -1.00000000
vn -0.38268343 0.0000000e+0 -0.92387953
vn 0.0000000e+0 -1.00000000 -4.9613049e-18
vn 0.38268343 0.0000000e+0 -0.92387953
vn 2.9767830e-16 0.0000000e+0 -1.00000000
vn 0.0000000e+0 -1.00000000 -4.9613049e-18
vn 0.70710678 0.0000000e+0 -0.70710678
vn 0.38268343 0.0000000e+0 -0.92387953
vn 0.0000000e+0 -1.00000000 -4.9613049e-18
vn 0.92387953 0.0000000e+0 -0.38268343
vn 0.70710678 0.0000000e+0 -0.70710678
g Knight_LFO_C_Collider_default
usemtl default
s 1
f 2//6 18//54 17//51 1//3
f 4//12 20//60 19//56 3//8
f 6//18 22//66 21//62 5//14
f 8//24 24//72 23//68 7//20
f 10//30 26//78 25//74 9//26
f 13//39 29//87 28//83 12//35
f 16//48 32//96 31//92 15//44
s 2
f 1//1 16//46 15//43 14//40 13//37 12//34 11//31 10//28 9//25 8//22 7//19 6//16 5//13 4//10 3//7 2//4
f 18//52 19//55 20//58 21//61 22//64 23//67 24//70 25//73 26//76 27//79 28//82 29//85 30//88 31//91 32//94 17//49
s 3
f 1//2 17//50 32//95 16//47
f 3//9 19//57 18//53 2//5
f 5//15 21//63 20//59 4//11
f 7//21 23//69 22//65 6//17
f 9//27 25//75 24//71 8//23
f 12//36 28//84 27//80 11//32
f 14//42 30//90 29//86 13//38
s 4
f 11//33 27//81 26//77 10//29
f 15//45 31//93 30//89 14//41
