# Exported from Wings 3D 1.5.3
mtllib Prince_Adapter_A_Collider.mtl
o Prince_Adapter_A_Collider
#48 vertices, 34 faces
v 0.90000000 -0.87454000 -0.17902113
v 0.90000000 -0.87454000 0.17902113
v 0.76298316 -0.87454000 0.50980905
v 0.50980905 -0.87454000 0.76298316
v 0.17902113 -0.87454000 0.90000000
v -0.17902113 -0.87454000 0.90000000
v -0.50980905 -0.87454000 0.76298316
v -0.76298316 -0.87454000 0.50980905
v -0.90000000 -0.87454000 0.17902113
v -0.90000000 -0.87454000 -0.17902113
v -0.76298316 -0.87454000 -0.50980905
v -0.50980905 -0.87454000 -0.76298316
v -0.17902113 -0.87454000 -0.90000000
v 0.17902113 -0.87454000 -0.90000000
v 0.50980905 -0.87454000 -0.76298316
v 0.76298316 -0.87454000 -0.50980905
v 0.93750000 -1.24750000 -0.18648034
v 0.93750000 -1.24750000 0.18648034
v 0.79477412 -1.24750000 0.53105109
v 0.53105109 -1.24750000 0.79477412
v 0.18648034 -1.24750000 0.93750000
v -0.18648034 -1.24750000 0.93750000
v -0.53105109 -1.24750000 0.79477412
v -0.79477412 -1.24750000 0.53105109
v -0.93750000 -1.24750000 0.18648034
v -0.93750000 -1.24750000 -0.18648034
v -0.79477412 -1.24750000 -0.53105109
v -0.53105109 -1.24750000 -0.79477412
v -0.18648034 -1.24750000 -0.93750000
v 0.18648034 -1.24750000 -0.93750000
v 0.53105109 -1.24750000 -0.79477412
v 0.79477412 -1.24750000 -0.53105109
v 0.62500000 1.24750000 0.12432023
v 0.62500000 1.24750000 -0.12432023
v 0.52984942 1.24750000 -0.35403406
v 0.35403406 1.24750000 -0.52984942
v 0.12432023 1.24750000 -0.62500000
v -0.12432023 1.24750000 -0.62500000
v -0.35403406 1.24750000 -0.52984942
v -0.52984942 1.24750000 -0.35403406
v -0.62500000 1.24750000 -0.12432023
v -0.62500000 1.24750000 0.12432023
v -0.52984942 1.24750000 0.35403406
v -0.35403406 1.24750000 0.52984942
v -0.12432023 1.24750000 0.62500000
v 0.12432023 1.24750000 0.62500000
v 0.35403406 1.24750000 0.52984942
v 0.52984942 1.24750000 0.35403406
vn 0.91924458 0.10004255 -0.38076357
vn 0.99498316 0.10004255 0.0000000e+0
vn 0.99170723 0.12851760 0.0000000e+0
vn 0.91621801 0.12851760 -0.37950993
vn 0.91924458 0.10004255 0.38076357
vn 0.99498316 0.10004255 0.0000000e+0
vn 0.99170723 0.12851760 0.0000000e+0
vn 0.91621801 0.12851760 0.37950993
vn 0.70355934 0.10004255 0.70355934
vn 0.91924458 0.10004255 0.38076357
vn 0.70124291 0.12851760 0.70124291
vn 0.91621801 0.12851760 0.37950993
vn 0.38076357 0.10004255 0.91924458
vn 0.70355934 0.10004255 0.70355934
vn 0.37950993 0.12851760 0.91621801
vn 0.70124291 0.12851760 0.70124291
vn -3.0388260e-16 0.10004255 0.99498316
vn 0.38076357 0.10004255 0.91924458
vn -3.4208853e-16 0.12851760 0.99170723
vn 0.37950993 0.12851760 0.91621801
vn -0.38076357 0.10004255 0.91924458
vn -3.0388260e-16 0.10004255 0.99498316
vn -0.37950993 0.12851760 0.91621801
vn -3.4208853e-16 0.12851760 0.99170723
vn -0.70355934 0.10004255 0.70355934
vn -0.38076357 0.10004255 0.91924458
vn -0.70124291 0.12851760 0.70124291
vn -0.37950993 0.12851760 0.91621801
vn -0.91924458 0.10004255 0.38076357
vn -0.70355934 0.10004255 0.70355934
vn -0.91621801 0.12851760 0.37950993
vn -0.70124291 0.12851760 0.70124291
vn -0.99498316 0.10004255 0.0000000e+0
vn -0.91924458 0.10004255 0.38076357
vn -0.99170723 0.12851760 0.0000000e+0
vn -0.91621801 0.12851760 0.37950993
vn -0.91924458 0.10004255 -0.38076357
vn -0.99498316 0.10004255 0.0000000e+0
vn -0.91621801 0.12851760 -0.37950993
vn -0.99170723 0.12851760 0.0000000e+0
vn -0.70355934 0.10004255 -0.70355934
vn -0.91924458 0.10004255 -0.38076357
vn -0.70124291 0.12851760 -0.70124291
vn -0.91621801 0.12851760 -0.37950993
vn -0.38076357 0.10004255 -0.91924458
vn -0.70355934 0.10004255 -0.70355934
vn -0.37950993 0.12851760 -0.91621801
vn -0.70124291 0.12851760 -0.70124291
vn 3.0388260e-16 0.10004255 -0.99498316
vn -0.38076357 0.10004255 -0.91924458
vn 3.4208853e-16 0.12851760 -0.99170723
vn -0.37950993 0.12851760 -0.91621801
vn 0.38076357 0.10004255 -0.91924458
vn 3.0388260e-16 0.10004255 -0.99498316
vn 0.37950993 0.12851760 -0.91621801
vn 3.4208853e-16 0.12851760 -0.99170723
vn 0.70355934 0.10004255 -0.70355934
vn 0.38076357 0.10004255 -0.91924458
vn 0.70124291 0.12851760 -0.70124291
vn 0.37950993 0.12851760 -0.91621801
vn 0.91924458 0.10004255 -0.38076357
vn 0.70355934 0.10004255 -0.70355934
vn 0.91621801 0.12851760 -0.37950993
vn 0.70124291 0.12851760 -0.70124291
vn 0.0000000e+0 -1.00000000 7.9380879e-17
vn 0.91924458 0.10004255 -0.38076357
vn 0.99498316 0.10004255 0.0000000e+0
vn 0.0000000e+0 -1.00000000 7.9380879e-17
vn 0.91924458 0.10004255 0.38076357
vn 0.99498316 0.10004255 0.0000000e+0
vn 0.0000000e+0 -1.00000000 7.9380879e-17
vn 0.70355934 0.10004255 0.70355934
vn 0.91924458 0.10004255 0.38076357
vn 0.0000000e+0 -1.00000000 7.9380879e-17
vn 0.38076357 0.10004255 0.91924458
vn 0.70355934 0.10004255 0.70355934
vn 0.0000000e+0 -1.00000000 7.9380879e-17
vn -3.0388260e-16 0.10004255 0.99498316
vn 0.38076357 0.10004255 0.91924458
vn 0.0000000e+0 -1.00000000 7.9380879e-17
vn -0.38076357 0.10004255 0.91924458
vn -3.0388260e-16 0.10004255 0.99498316
vn 0.0000000e+0 -1.00000000 7.9380879e-17
vn -0.70355934 0.10004255 0.70355934
vn -0.38076357 0.10004255 0.91924458
vn 0.0000000e+0 -1.00000000 7.9380879e-17
vn -0.91924458 0.10004255 0.38076357
vn -0.70355934 0.10004255 0.70355934
vn 0.0000000e+0 -1.00000000 7.9380879e-17
vn -0.99498316 0.10004255 0.0000000e+0
vn -0.91924458 0.10004255 0.38076357
vn 0.0000000e+0 -1.00000000 7.9380879e-17
vn -0.91924458 0.10004255 -0.38076357
vn -0.99498316 0.10004255 0.0000000e+0
vn 0.0000000e+0 -1.00000000 7.9380879e-17
vn -0.70355934 0.10004255 -0.70355934
vn -0.91924458 0.10004255 -0.38076357
vn 0.0000000e+0 -1.00000000 7.9380879e-17
vn -0.38076357 0.10004255 -0.91924458
vn -0.70355934 0.10004255 -0.70355934
vn 0.0000000e+0 -1.00000000 7.9380879e-17
vn 3.0388260e-16 0.10004255 -0.99498316
vn -0.38076357 0.10004255 -0.91924458
vn 0.0000000e+0 -1.00000000 7.9380879e-17
vn 0.38076357 0.10004255 -0.91924458
vn 3.0388260e-16 0.10004255 -0.99498316
vn 0.0000000e+0 -1.00000000 7.9380879e-17
vn 0.70355934 0.10004255 -0.70355934
vn 0.38076357 0.10004255 -0.91924458
vn 0.0000000e+0 -1.00000000 7.9380879e-17
vn 0.91924458 0.10004255 -0.38076357
vn 0.70355934 0.10004255 -0.70355934
vn 0.0000000e+0 1.00000000 1.4511817e-16
vn 0.99170723 0.12851760 0.0000000e+0
vn 0.91621801 0.12851760 0.37950993
vn 0.0000000e+0 1.00000000 1.4511817e-16
vn 0.99170723 0.12851760 0.0000000e+0
vn 0.91621801 0.12851760 -0.37950993
vn 0.0000000e+0 1.00000000 1.4511817e-16
vn 0.91621801 0.12851760 -0.37950993
vn 0.70124291 0.12851760 -0.70124291
vn 0.0000000e+0 1.00000000 1.4511817e-16
vn 0.70124291 0.12851760 -0.70124291
vn 0.37950993 0.12851760 -0.91621801
vn 0.0000000e+0 1.00000000 1.4511817e-16
vn 0.37950993 0.12851760 -0.91621801
vn 3.4208853e-16 0.12851760 -0.99170723
vn 0.0000000e+0 1.00000000 1.4511817e-16
vn 3.4208853e-16 0.12851760 -0.99170723
vn -0.37950993 0.12851760 -0.91621801
vn 0.0000000e+0 1.00000000 1.4511817e-16
vn -0.37950993 0.12851760 -0.91621801
vn -0.70124291 0.12851760 -0.70124291
vn 0.0000000e+0 1.00000000 1.4511817e-16
vn -0.70124291 0.12851760 -0.70124291
vn -0.91621801 0.12851760 -0.37950993
vn 0.0000000e+0 1.00000000 1.4511817e-16
vn -0.91621801 0.12851760 -0.37950993
vn -0.99170723 0.12851760 0.0000000e+0
vn 0.0000000e+0 1.00000000 1.4511817e-16
vn -0.99170723 0.12851760 0.0000000e+0
vn -0.91621801 0.12851760 0.37950993
vn 0.0000000e+0 1.00000000 1.4511817e-16
vn -0.91621801 0.12851760 0.37950993
vn -0.70124291 0.12851760 0.70124291
vn 0.0000000e+0 1.00000000 1.4511817e-16
vn -0.70124291 0.12851760 0.70124291
vn -0.37950993 0.12851760 0.91621801
vn 0.0000000e+0 1.00000000 1.4511817e-16
vn -0.37950993 0.12851760 0.91621801
vn -3.4208853e-16 0.12851760 0.99170723
vn 0.0000000e+0 1.00000000 1.4511817e-16
vn -3.4208853e-16 0.12851760 0.99170723
vn 0.37950993 0.12851760 0.91621801
vn 0.0000000e+0 1.00000000 1.4511817e-16
vn 0.37950993 0.12851760 0.91621801
vn 0.70124291 0.12851760 0.70124291
vn 0.0000000e+0 1.00000000 1.4511817e-16
vn 0.70124291 0.12851760 0.70124291
vn 0.91621801 0.12851760 0.37950993
g Prince_Adapter_A_Collider_default
usemtl default
s 1
f 2//6 18//70 17//67 1//2
f 2//8 33//115 48//160 3//12
f 4//14 20//76 19//72 3//9
f 4//15 47//156 46//154 5//20
f 6//22 22//82 21//78 5//17
f 6//23 45//150 44//148 7//28
f 8//30 24//88 23//84 7//25
f 8//31 43//144 42//142 9//36
f 10//38 26//94 25//90 9//33
f 10//39 41//138 40//136 11//44
f 12//46 28//100 27//96 11//41
f 12//47 39//132 38//130 13//52
f 14//54 30//106 29//102 13//49
f 14//55 37//126 36//124 15//60
f 16//62 32//112 31//108 15//57
f 16//63 35//120 34//118 1//4
s 2
f 1//1 17//66 32//111 16//61
f 1//3 34//117 33//114 2//7
f 3//10 19//73 18//69 2//5
f 3//11 48//159 47//157 4//16
f 5//18 21//79 20//75 4//13
f 5//19 46//153 45//151 6//24
f 7//26 23//85 22//81 6//21
f 7//27 44//147 43//145 8//32
f 9//34 25//91 24//87 8//29
f 9//35 42//141 41//139 10//40
f 11//42 27//97 26//93 10//37
f 11//43 40//135 39//133 12//48
f 13//50 29//103 28//99 12//45
f 13//51 38//129 37//127 14//56
f 15//58 31//109 30//105 14//53
f 15//59 36//123 35//121 16//64
s 3
f 18//68 19//71 20//74 21//77 22//80 23//83 24//86 25//89 26//92 27//95 28//98 29//101 30//104 31//107 32//110 17//65
f 34//116 35//119 36//122 37//125 38//128 39//131 40//134 41//137 42//140 43//143 44//146 45//149 46//152 47//155 48//158 33//113
