# Exported from Wings 3D 1.5.3
mtllib Knight_Engine_A_Flag.mtl
o Knight_Engine_A_Flag
#10 vertices, 4 faces
v -0.12306397 0.52544744 -0.46178101
v -4.9535179e-17 0.52544744 -0.47798269
v 0.12306397 0.52544744 -0.46178101
v 0.13100771 0.29955256 -0.49142743
v -7.7648320e-17 0.29955256 -0.50867492
v -0.13100771 0.29955256 -0.49142743
v 0.17784497 0.52544754 -0.43908996
v 0.19171063 0.29955246 -0.46628347
v -0.19171063 0.29955246 -0.46628347
v -0.17784497 0.52544754 -0.43908996
vt 1.7347235e-17 0.0000000e+0
vt 1.7347235e-17 1.00000000
vt 0.15624701 0.0000000e+0
vt 0.15624701 1.00000000
vt 0.50000000 1.00000000
vt 0.50000000 0.0000000e+0
vt 0.84375299 0.0000000e+0
vt 0.84375299 1.00000000
vt 1.00000000 0.0000000e+0
vt 1.00000000 1.00000000
vn -0.25646265 0.13463255 -0.95713164
vn -0.25646265 0.13463255 -0.95713164
vn -4.4785207e-16 0.13463255 -0.99089559
vn -4.4785207e-16 0.13463255 -0.99089559
vn 0.25646265 0.13463255 -0.95713164
vn 0.25646265 0.13463255 -0.95713164
vn 0.25646265 0.13463255 -0.95713164
vn 0.25646265 0.13463255 -0.95713164
vn -4.4785207e-16 0.13463255 -0.99089559
vn -4.4785207e-16 0.13463255 -0.99089559
vn -0.25646265 0.13463255 -0.95713164
vn -0.25646265 0.13463255 -0.95713164
vn 0.37925789 0.13350137 -0.91560954
vn 0.37925789 0.13350137 -0.91560954
vn -0.37925789 0.13350137 -0.91560954
vn -0.37925789 0.13350137 -0.91560954
g Knight_Engine_A_Flag_Knight_Engine_A_Flag_auv
usemtl Knight_Engine_A_Flag_auv
s 2
f 1/8/1 2/5/4 5/6/10 6/7/11
f 2/5/3 3/4/6 4/3/8 5/6/9
f 3/4/5 7/2/13 8/1/14 4/3/7
f 6/7/12 9/9/15 10/10/16 1/8/2
