# Exported from Wings 3D 1.5.3
mtllib Centaur_Nose_A_Collider.mtl
o Centaur_Nose_A_Collider
#49 vertices, 49 faces
v 0.77296875 -0.18125000 -0.15375304
v 0.77296875 -0.18125000 0.15375304
v 0.65529126 -0.18125000 0.43785162
v 0.43785162 -0.18125000 0.65529126
v 0.15375304 -0.18125000 0.77296875
v -0.15375304 -0.18125000 0.77296875
v -0.43785162 -0.18125000 0.65529126
v -0.65529126 -0.18125000 0.43785162
v -0.77296875 -0.18125000 0.15375304
v -0.77296875 -0.18125000 -0.15375304
v -0.65529126 -0.18125000 -0.43785162
v -0.43785162 -0.18125000 -0.65529126
v -0.15375304 -0.18125000 -0.77296875
v 0.15375304 -0.18125000 -0.77296875
v 0.43785162 -0.18125000 -0.65529126
v 0.65529126 -0.18125000 -0.43785162
v 0.93750000 -1.48125000 -0.18648034
v 0.93750000 -1.48125000 0.18648034
v 0.79477412 -1.48125000 0.53105109
v 0.53105109 -1.48125000 0.79477412
v 0.18648034 -1.48125000 0.93750000
v -0.18648034 -1.48125000 0.93750000
v -0.53105109 -1.48125000 0.79477412
v -0.79477412 -1.48125000 0.53105109
v -0.93750000 -1.48125000 0.18648034
v -0.93750000 -1.48125000 -0.18648034
v -0.79477412 -1.48125000 -0.53105109
v -0.53105109 -1.48125000 -0.79477412
v -0.18648034 -1.48125000 -0.93750000
v 0.18648034 -1.48125000 -0.93750000
v 0.53105109 -1.48125000 -0.79477412
v 0.79477412 -1.48125000 -0.53105109
v 0.37102500 1.01875000 7.3801461e-2
v 0.37102500 1.01875000 -7.3801461e-2
v 0.31453981 1.01875000 -0.21016878
v 0.21016878 1.01875000 -0.31453981
v 7.3801461e-2 1.01875000 -0.37102500
v -7.3801461e-2 1.01875000 -0.37102500
v -0.21016878 1.01875000 -0.31453981
v -0.31453981 1.01875000 -0.21016878
v -0.37102500 1.01875000 -7.3801461e-2
v -0.37102500 1.01875000 7.3801461e-2
v -0.31453981 1.01875000 0.21016878
v -0.21016878 1.01875000 0.31453981
v -7.3801461e-2 1.01875000 0.37102500
v 7.3801461e-2 1.01875000 0.37102500
v 0.21016878 1.01875000 0.31453981
v 0.31453981 1.01875000 0.21016878
v -1.3877788e-17 1.48125000 1.9689111e-16
vn 0.91656787 0.12556087 -0.37965484
vn 0.99208592 0.12556087 0.0000000e+0
vn 0.94822151 0.31760976 0.0000000e+0
vn 0.87604245 0.31760976 -0.36286866
vn 0.91656787 0.12556087 0.37965484
vn 0.99208592 0.12556087 0.0000000e+0
vn 0.94822151 0.31760976 0.0000000e+0
vn 0.87604245 0.31760976 0.36286866
vn 0.70151068 0.12556087 0.70151068
vn 0.91656787 0.12556087 0.37965484
vn 0.67049386 0.31760976 0.67049386
vn 0.87604245 0.31760976 0.36286866
vn 0.37965484 0.12556087 0.91656787
vn 0.70151068 0.12556087 0.70151068
vn 0.36286866 0.31760976 0.87604245
vn 0.67049386 0.31760976 0.67049386
vn -3.4240644e-16 0.12556087 0.99208592
vn 0.37965484 0.12556087 0.91656787
vn -3.8552571e-16 0.31760976 0.94822151
vn 0.36286866 0.31760976 0.87604245
vn -0.37965484 0.12556087 0.91656787
vn -3.4240644e-16 0.12556087 0.99208592
vn -0.36286866 0.31760976 0.87604245
vn -3.8552571e-16 0.31760976 0.94822151
vn -0.70151068 0.12556087 0.70151068
vn -0.37965484 0.12556087 0.91656787
vn -0.67049386 0.31760976 0.67049386
vn -0.36286866 0.31760976 0.87604245
vn -0.91656787 0.12556087 0.37965484
vn -0.70151068 0.12556087 0.70151068
vn -0.87604245 0.31760976 0.36286866
vn -0.67049386 0.31760976 0.67049386
vn -0.99208592 0.12556087 0.0000000e+0
vn -0.91656787 0.12556087 0.37965484
vn -0.94822151 0.31760976 0.0000000e+0
vn -0.87604245 0.31760976 0.36286866
vn -0.91656787 0.12556087 -0.37965484
vn -0.99208592 0.12556087 0.0000000e+0
vn -0.87604245 0.31760976 -0.36286866
vn -0.94822151 0.31760976 0.0000000e+0
vn -0.70151068 0.12556087 -0.70151068
vn -0.91656787 0.12556087 -0.37965484
vn -0.67049386 0.31760976 -0.67049386
vn -0.87604245 0.31760976 -0.36286866
vn -0.37965484 0.12556087 -0.91656787
vn -0.70151068 0.12556087 -0.70151068
vn -0.36286866 0.31760976 -0.87604245
vn -0.67049386 0.31760976 -0.67049386
vn 3.4240644e-16 0.12556087 -0.99208592
vn -0.37965484 0.12556087 -0.91656787
vn 3.8552571e-16 0.31760976 -0.94822151
vn -0.36286866 0.31760976 -0.87604245
vn 0.37965484 0.12556087 -0.91656787
vn 3.4240644e-16 0.12556087 -0.99208592
vn 0.36286866 0.31760976 -0.87604245
vn 3.8552571e-16 0.31760976 -0.94822151
vn 0.70151068 0.12556087 -0.70151068
vn 0.37965484 0.12556087 -0.91656787
vn 0.67049386 0.31760976 -0.67049386
vn 0.36286866 0.31760976 -0.87604245
vn 0.91656787 0.12556087 -0.37965484
vn 0.70151068 0.12556087 -0.70151068
vn 0.87604245 0.31760976 -0.36286866
vn 0.67049386 0.31760976 -0.67049386
vn 0.0000000e+0 -1.00000000 -6.9458269e-17
vn 0.91656787 0.12556087 -0.37965484
vn 0.99208592 0.12556087 0.0000000e+0
vn 0.0000000e+0 -1.00000000 -6.9458269e-17
vn 0.91656787 0.12556087 0.37965484
vn 0.99208592 0.12556087 0.0000000e+0
vn 0.0000000e+0 -1.00000000 -6.9458269e-17
vn 0.70151068 0.12556087 0.70151068
vn 0.91656787 0.12556087 0.37965484
vn 0.0000000e+0 -1.00000000 -6.9458269e-17
vn 0.37965484 0.12556087 0.91656787
vn 0.70151068 0.12556087 0.70151068
vn 0.0000000e+0 -1.00000000 -6.9458269e-17
vn -3.4240644e-16 0.12556087 0.99208592
vn 0.37965484 0.12556087 0.91656787
vn 0.0000000e+0 -1.00000000 -6.9458269e-17
vn -0.37965484 0.12556087 0.91656787
vn -3.4240644e-16 0.12556087 0.99208592
vn 0.0000000e+0 -1.00000000 -6.9458269e-17
vn -0.70151068 0.12556087 0.70151068
vn -0.37965484 0.12556087 0.91656787
vn 0.0000000e+0 -1.00000000 -6.9458269e-17
vn -0.91656787 0.12556087 0.37965484
vn -0.70151068 0.12556087 0.70151068
vn 0.0000000e+0 -1.00000000 -6.9458269e-17
vn -0.99208592 0.12556087 0.0000000e+0
vn -0.91656787 0.12556087 0.37965484
vn 0.0000000e+0 -1.00000000 -6.9458269e-17
vn -0.91656787 0.12556087 -0.37965484
vn -0.99208592 0.12556087 0.0000000e+0
vn 0.0000000e+0 -1.00000000 -6.9458269e-17
vn -0.70151068 0.12556087 -0.70151068
vn -0.91656787 0.12556087 -0.37965484
vn 0.0000000e+0 -1.00000000 -6.9458269e-17
vn -0.37965484 0.12556087 -0.91656787
vn -0.70151068 0.12556087 -0.70151068
vn 0.0000000e+0 -1.00000000 -6.9458269e-17
vn 3.4240644e-16 0.12556087 -0.99208592
vn -0.37965484 0.12556087 -0.91656787
vn 0.0000000e+0 -1.00000000 -6.9458269e-17
vn 0.37965484 0.12556087 -0.91656787
vn 3.4240644e-16 0.12556087 -0.99208592
vn 0.0000000e+0 -1.00000000 -6.9458269e-17
vn 0.70151068 0.12556087 -0.70151068
vn 0.37965484 0.12556087 -0.91656787
vn 0.0000000e+0 -1.00000000 -6.9458269e-17
vn 0.91656787 0.12556087 -0.37965484
vn 0.70151068 0.12556087 -0.70151068
vn 0.94822151 0.31760976 0.0000000e+0
vn 0.87604245 0.31760976 0.36286866
vn 0.78002483 0.62574857 0.0000000e+0
vn 0.72064897 0.62574857 0.29850258
vn 0.94822151 0.31760976 0.0000000e+0
vn 0.87604245 0.31760976 -0.36286866
vn 0.78002483 0.62574857 0.0000000e+0
vn 0.72064897 0.62574857 -0.29850258
vn 0.87604245 0.31760976 -0.36286866
vn 0.67049386 0.31760976 -0.67049386
vn 0.72064897 0.62574857 -0.29850258
vn 0.55156085 0.62574857 -0.55156085
vn 0.67049386 0.31760976 -0.67049386
vn 0.36286866 0.31760976 -0.87604245
vn 0.55156085 0.62574857 -0.55156085
vn 0.29850258 0.62574857 -0.72064897
vn 0.36286866 0.31760976 -0.87604245
vn 3.8552571e-16 0.31760976 -0.94822151
vn 0.29850258 0.62574857 -0.72064897
vn 3.1714069e-16 0.62574857 -0.78002483
vn 3.8552571e-16 0.31760976 -0.94822151
vn -0.36286866 0.31760976 -0.87604245
vn 3.1714069e-16 0.62574857 -0.78002483
vn -0.29850258 0.62574857 -0.72064897
vn -0.36286866 0.31760976 -0.87604245
vn -0.67049386 0.31760976 -0.67049386
vn -0.29850258 0.62574857 -0.72064897
vn -0.55156085 0.62574857 -0.55156085
vn -0.67049386 0.31760976 -0.67049386
vn -0.87604245 0.31760976 -0.36286866
vn -0.55156085 0.62574857 -0.55156085
vn -0.72064897 0.62574857 -0.29850258
vn -0.87604245 0.31760976 -0.36286866
vn -0.94822151 0.31760976 0.0000000e+0
vn -0.72064897 0.62574857 -0.29850258
vn -0.78002483 0.62574857 0.0000000e+0
vn -0.94822151 0.31760976 0.0000000e+0
vn -0.87604245 0.31760976 0.36286866
vn -0.78002483 0.62574857 0.0000000e+0
vn -0.72064897 0.62574857 0.29850258
vn -0.87604245 0.31760976 0.36286866
vn -0.67049386 0.31760976 0.67049386
vn -0.72064897 0.62574857 0.29850258
vn -0.55156085 0.62574857 0.55156085
vn -0.67049386 0.31760976 0.67049386
vn -0.36286866 0.31760976 0.87604245
vn -0.55156085 0.62574857 0.55156085
vn -0.29850258 0.62574857 0.72064897
vn -0.36286866 0.31760976 0.87604245
vn -3.8552571e-16 0.31760976 0.94822151
vn -0.29850258 0.62574857 0.72064897
vn -3.1714069e-16 0.62574857 0.78002483
vn -3.8552571e-16 0.31760976 0.94822151
vn 0.36286866 0.31760976 0.87604245
vn -3.1714069e-16 0.62574857 0.78002483
vn 0.29850258 0.62574857 0.72064897
vn 0.36286866 0.31760976 0.87604245
vn 0.67049386 0.31760976 0.67049386
vn 0.29850258 0.62574857 0.72064897
vn 0.55156085 0.62574857 0.55156085
vn 0.67049386 0.31760976 0.67049386
vn 0.87604245 0.31760976 0.36286866
vn 0.55156085 0.62574857 0.55156085
vn 0.72064897 0.62574857 0.29850258
vn 0.78002483 0.62574857 0.0000000e+0
vn 0.72064897 0.62574857 -0.29850258
vn 0.55156085 0.62574857 -0.55156085
vn 0.29850258 0.62574857 -0.72064897
vn 3.1714069e-16 0.62574857 -0.78002483
vn -0.29850258 0.62574857 -0.72064897
vn -0.55156085 0.62574857 -0.55156085
vn -0.72064897 0.62574857 -0.29850258
vn -0.78002483 0.62574857 0.0000000e+0
vn -0.72064897 0.62574857 0.29850258
vn -0.55156085 0.62574857 0.55156085
vn -0.29850258 0.62574857 0.72064897
vn -3.1714069e-16 0.62574857 0.78002483
vn 0.29850258 0.62574857 0.72064897
vn 0.55156085 0.62574857 0.55156085
vn 0.72064897 0.62574857 0.29850258
g Centaur_Nose_A_Collider_default
usemtl default
s 1
f 1//1 17//66 32//111 16//61
f 1//3 34//117 33//113 2//7
f 3//10 19//73 18//69 2//5
f 5//18 21//79 20//75 4//13
f 5//19 46//165 45//162 6//24
f 7//26 23//85 22//81 6//21
f 7//27 44//157 43//154 8//32
f 9//34 25//91 24//87 8//29
f 9//35 42//149 41//146 10//40
f 11//42 27//97 26//93 10//37
f 11//43 40//141 39//138 12//48
f 13//50 29//103 28//99 12//45
f 13//51 38//133 37//130 14//56
f 15//58 31//109 30//105 14//53
f 15//59 36//125 35//122 16//64
f 35//123 49//178 34//120
f 37//131 49//180 36//128
f 39//139 49//182 38//136
f 41//147 49//184 40//144
f 43//155 49//186 42//152
f 45//163 49//188 44//160
f 48//175 49//191 47//172
s 2
f 2//8 33//114 48//174 3//12
f 4//15 47//169 46//166 5//20
f 6//23 45//161 44//158 7//28
f 8//31 43//153 42//150 9//36
f 10//39 41//145 40//142 11//44
f 12//47 39//137 38//134 13//52
f 14//55 37//129 36//126 15//60
f 16//63 35//121 34//118 1//4
f 18//68 19//71 20//74 21//77 22//80 23//83 24//86 25//89 26//92 27//95 28//98 29//101 30//104 31//107 32//110 17//65
f 34//119 49//177 33//115
f 36//127 49//179 35//124
f 38//135 49//181 37//132
f 40//143 49//183 39//140
f 42//151 49//185 41//148
f 44//159 49//187 43//156
f 46//167 49//189 45//164
s 3
f 2//6 18//70 17//67 1//2
f 3//11 48//173 47//170 4//16
f 6//22 22//82 21//78 5//17
f 8//30 24//88 23//84 7//25
f 10//38 26//94 25//90 9//33
f 12//46 28//100 27//96 11//41
f 14//54 30//106 29//102 13//49
f 16//62 32//112 31//108 15//57
f 33//116 49//192 48//176
f 47//171 49//190 46//168
s 4
f 4//14 20//76 19//72 3//9
